<?xml version="1.0" standalone="no"?><!DOCTYPE svg PUBLIC "-//W3C//DTD SVG 1.1//EN" "http://www.w3.org/Graphics/SVG/1.1/DTD/svg11.dtd"><svg t="1545830194820" class="icon" style="" viewBox="0 0 1024 1024" version="1.1" xmlns="http://www.w3.org/2000/svg" p-id="14921" xmlns:xlink="http://www.w3.org/1999/xlink" width="128" height="128"><defs><style type="text/css"></style></defs><path d="M512 37.741714c0-20.333714-12.141714-26.112-27.648-12.434285L314.294857 175.616a31.597714 31.597714 0 0 0 0 48.859429l170.057143 150.235428c15.286857 13.458286 27.648 7.899429 27.648-12.361143V264.630857a299.666286 299.666286 0 1 1-299.666286 299.739429c0-39.789714 12.434286-77.531429 12.434286-77.531429a40.813714 40.813714 0 0 0-24.868571-47.396571L137.874286 416.914286a32.475429 32.475429 0 0 0-43.885715 23.259428s-20.48 67.730286-20.48 124.123429A438.418286 438.418286 0 1 0 512 125.952V37.741714z" p-id="14922"></path></svg>
