<?xml version="1.0" standalone="no"?><!DOCTYPE svg PUBLIC "-//W3C//DTD SVG 1.1//EN" "http://www.w3.org/Graphics/SVG/1.1/DTD/svg11.dtd"><svg t="1545193795680" class="icon" style="fill:#cccccc" viewBox="0 0 1024 1024" version="1.1" xmlns="http://www.w3.org/2000/svg" p-id="7703" xmlns:xlink="http://www.w3.org/1999/xlink" width="200" height="200"><defs><style type="text/css"></style></defs><path d="M992 384 640 384 640 32c0-17.672-14.328-32-32-32l-192 0c-17.672 0-32 14.328-32 32l0 352L32 384c-17.672 0-32 14.328-32 32l0 192c0 17.672 14.328 32 32 32l352 0 0 352c0 17.672 14.328 32 32 32l192 0c17.672 0 32-14.328 32-32L640 640l352 0c17.672 0 32-14.328 32-32l0-192C1024 398.328 1009.672 384 992 384z" p-id="7704"></path></svg>
