<?xml version="1.0" standalone="no"?><!DOCTYPE svg PUBLIC "-//W3C//DTD SVG 1.1//EN" "http://www.w3.org/Graphics/SVG/1.1/DTD/svg11.dtd"><svg t="1545794231231" class="icon" style="" viewBox="0 0 1024 1024" version="1.1" xmlns="http://www.w3.org/2000/svg" p-id="5463" xmlns:xlink="http://www.w3.org/1999/xlink" width="64" height="64" fill="#FFFFFF"><defs><style type="text/css"></style></defs><path d="M512.064 324.631c-103.351 0-187.433 84.082-187.433 187.433 0 103.352 84.082 187.434 187.433 187.434 103.352 0 187.434-84.082 187.434-187.434 0-103.351-84.082-187.433-187.434-187.433z m0 310.866c-68.061 0-123.433-55.372-123.433-123.434 0-68.061 55.372-123.433 123.433-123.433 68.062 0 123.434 55.372 123.434 123.433 0 68.062-55.372 123.434-123.434 123.434z" p-id="5464"></path><path d="M908.36 403.237l-75.519-12.398a342.447 342.447 0 0 0-7.942-19.14l44.797-62.1c17.019-23.588 12.59-58.664-10.301-81.587l-62.758-62.853c-22.889-22.924-57.957-27.402-81.569-10.424l-62.172 44.708a342.93 342.93 0 0 0-17.199-7.214l-11.835-75.636c-4.049-25.866-27.04-46.34-56.074-50.066-3.93-0.641-7.64-0.953-11.313-0.953h-43.146l-42.994-0.258c-3.687-0.015-7.378 0.268-11.308 0.883-29.062 3.549-52.18 23.886-56.384 49.731l-12.283 75.533a342.2 342.2 0 0 0-17.247 7.139l-61.903-45.08c-23.511-17.122-58.605-12.85-81.63 9.935l-63.133 62.473c-23.027 22.786-27.667 57.833-10.793 81.523l44.417 62.358a342.928 342.928 0 0 0-8.039 19.101l-75.599 11.947c-28.731 4.538-50.506 32.39-50.65 64.784l-0.4 88.817c-0.147 32.393 21.375 60.439 50.063 65.239l75.501 12.628a342.816 342.816 0 0 0 7.872 19.149l-44.992 61.978c-17.085 23.536-12.762 58.622 10.057 81.616l62.569 63.039c22.82 22.992 57.874 27.579 81.538 10.67l62.294-44.513a343.305 343.305 0 0 0 19.111 8.019l12.058 75.577c4.582 28.724 32.468 50.456 64.863 50.552l88.817 0.267h0.222c32.298-0.001 60.196-21.53 64.942-50.16l12.513-75.512a342.733 342.733 0 0 0 19.143-7.907l62.042 44.896c23.565 17.053 58.646 12.673 81.6-10.181l62.947-62.663c22.958-22.856 27.49-57.918 10.546-81.555l-44.607-62.229a342.946 342.946 0 0 0 7.998-19.123l75.555-12.171c28.715-4.628 50.404-32.545 50.453-64.938l0.133-88.819c0.048-32.39-21.56-60.371-50.261-65.082z m-13.873 153.81a7.45 7.45 0 0 1-0.431 2.46l-83.597 13.466c-0.097 0.006-0.252-0.002-0.477-0.01l-24.424-0.897-7.294 23.326c-4.986 15.946-11.573 31.704-19.578 46.836l-11.459 21.662 17.926 16.709c0.153 0.143 0.256 0.244 0.319 0.309l49.357 68.856a7.459 7.459 0 0 1-1.441 2.037l-62.948 62.665a7.456 7.456 0 0 1-2.043 1.431l-68.633-49.666a12.447 12.447 0 0 1-0.312-0.325l-16.629-18.011-21.719 11.365c-15.178 7.941-30.961 14.457-46.911 19.364l-23.377 7.193 0.806 24.445c0.007 0.218 0.008 0.367 0.008 0.461l-13.843 83.541a7.479 7.479 0 0 1-2.439 0.419h-0.021l-88.82-0.267a7.454 7.454 0 0 1-2.458-0.434l-13.343-83.629c0-0.097 0.002-0.253 0.01-0.481l0.93-24.417-23.31-7.328c-15.995-5.028-31.744-11.634-46.81-19.633l-21.638-11.488-16.737 17.892c-0.146 0.156-0.25 0.261-0.314 0.324l-68.925 49.25a7.472 7.472 0 0 1-2.036-1.444l-62.568-63.039a7.461 7.461 0 0 1-1.43-2.048l49.771-68.562c0.061-0.061 0.159-0.156 0.305-0.29l18.068-16.601-11.344-21.757c-7.904-15.159-14.393-30.951-19.286-46.938l-7.156-23.377-24.436 0.759c-0.229 0.006-0.384 0.007-0.481 0.007l-83.524-13.97a7.487 7.487 0 0 1-0.416-2.462l0.4-88.819c0.004-0.94 0.2-1.791 0.438-2.456l83.645-13.219c0.096 0 0.251 0.002 0.479 0.011l24.428 0.98 7.367-23.311c5.072-16.05 11.696-31.792 19.687-46.786l11.526-21.627-17.875-16.765a13.14 13.14 0 0 1-0.314-0.305l-49.147-68.997a7.495 7.495 0 0 1 1.449-2.035l63.134-62.475a7.458 7.458 0 0 1 2.047-1.426l68.488 49.875c0.062 0.062 0.161 0.164 0.302 0.318l16.573 18.072 21.76-11.301c14.813-7.693 30.078-14.005 45.368-18.761l23.325-7.254-0.848-24.412a13.208 13.208 0 0 1-0.009-0.48l13.575-83.478a8.01 8.01 0 0 1 1.733-0.389l0.912-0.1 0.904-0.152c0.861-0.144 1.209-0.146 1.223-0.146l43.086 0.258h43.437c0.015 0 0.362 0.004 1.224 0.154l0.905 0.158 0.913 0.105a8.013 8.013 0 0 1 1.727 0.398l13.077 83.571c0 0.093-0.002 0.244-0.012 0.464l-1.03 24.439 23.313 7.406c15.461 4.912 30.69 11.297 45.266 18.98l21.688 11.431 16.683-17.965c0.141-0.151 0.239-0.251 0.302-0.313l68.782-49.461a7.447 7.447 0 0 1 2.04 1.438l62.758 62.853a7.492 7.492 0 0 1 1.435 2.041l-49.563 68.709c-0.063 0.063-0.167 0.166-0.325 0.313l-17.977 16.655 11.394 21.696c7.978 15.191 14.519 30.966 19.442 46.885l7.219 23.338 24.416-0.812c0.234-0.008 0.398-0.008 0.493-0.009l83.557 13.718a7.46 7.46 0 0 1 0.423 2.46l-0.135 88.825z" p-id="5465"></path></svg>
