<?xml version="1.0" standalone="no"?><!DOCTYPE svg PUBLIC "-//W3C//DTD SVG 1.1//EN" "http://www.w3.org/Graphics/SVG/1.1/DTD/svg11.dtd"><svg t="1545794082672" class="icon" style="" viewBox="0 0 1024 1024" version="1.1" xmlns="http://www.w3.org/2000/svg" p-id="5401" xmlns:xlink="http://www.w3.org/1999/xlink" width="64" height="64"><defs><style type="text/css"></style></defs><path d="M925.595 336.511c-22.587-53.401-54.915-101.354-96.087-142.525-41.172-41.172-89.124-73.5-142.525-96.087-55.305-23.392-114.033-35.252-174.555-35.252-60.522 0-119.251 11.86-174.555 35.252-53.401 22.587-101.354 54.916-142.526 96.087-41.171 41.171-73.5 89.124-96.087 142.525-23.392 55.304-35.252 114.033-35.252 174.555 0 60.522 11.86 119.251 35.252 174.555 22.587 53.401 54.916 101.354 96.087 142.526 41.172 41.172 89.125 73.5 142.526 96.087 55.304 23.392 114.033 35.252 174.555 35.252 60.522 0 119.25-11.86 174.555-35.252 53.401-22.587 101.354-54.915 142.525-96.087s73.5-89.125 96.087-142.526c23.392-55.304 35.252-114.032 35.252-174.555 0-60.522-11.861-119.251-35.252-174.555zM512.427 895.486c-211.97 0-384.42-172.45-384.42-384.42s172.45-384.42 384.42-384.42c211.969 0 384.419 172.45 384.419 384.42s-172.45 384.42-384.419 384.42z" p-id="5402" fill="#FFFFFF"></path><path d="M512.427 190.743v640.646c176.909 0 320.323-143.413 320.323-320.323S689.336 190.743 512.427 190.743z" p-id="5403" fill="#FFFFFF"></path></svg>
